<?xml version="1.0" encoding="UTF-8" standalone="no"?>
<!-- Created with Inkscape (http://www.inkscape.org/) -->

<svg
   xmlns:dc="http://purl.org/dc/elements/1.1/"
   xmlns:cc="http://creativecommons.org/ns#"
   xmlns:rdf="http://www.w3.org/1999/02/22-rdf-syntax-ns#"
   xmlns:svg="http://www.w3.org/2000/svg"
   xmlns="http://www.w3.org/2000/svg"
   xmlns:xlink="http://www.w3.org/1999/xlink"
   xmlns:sodipodi="http://sodipodi.sourceforge.net/DTD/sodipodi-0.dtd"
   xmlns:inkscape="http://www.inkscape.org/namespaces/inkscape"
   width="800"
   height="800"
   viewBox="0 0 609.59998 406.4"
   version="1.1"
   id="svg6130"
   inkscape:version="0.92.4 (5da689c313, 2019-01-14)"
   sodipodi:docname="barbelll1.svg">
  <defs
     id="defs6124">
    <color-profile
       name="sRGB-IEC61966-2.1"
       xlink:href="C:\WINDOWS\system32\spool\drivers\color\sRGB Color Space Profile.icm"
       id="color-profile912" />
  </defs>
  <sodipodi:namedview
     id="base"
     pagecolor="#ffffff"
     bordercolor="#666666"
     borderopacity="1.0"
     inkscape:pageopacity="0.0"
     inkscape:pageshadow="2"
     inkscape:zoom="0.49497475"
     inkscape:cx="-245.98804"
     inkscape:cy="556.88162"
     inkscape:document-units="px"
     inkscape:current-layer="layer1"
     showgrid="false"
     units="in"
     objecttolerance="20"
     inkscape:snap-nodes="true"
     inkscape:object-paths="true"
     inkscape:window-width="1366"
     inkscape:window-height="745"
     inkscape:window-x="-8"
     inkscape:window-y="-8"
     inkscape:window-maximized="1"
     inkscape:snap-bbox="true"
     inkscape:bbox-nodes="false"
     inkscape:bbox-paths="false"
     inkscape:snap-bbox-midpoints="false"
     inkscape:snap-smooth-nodes="true"
     inkscape:snap-global="true" />
  <metadata
     id="metadata6127">
    <rdf:RDF>
      <cc:Work
         rdf:about="">
        <dc:format>image/svg+xml</dc:format>
        <dc:type
           rdf:resource="http://purl.org/dc/dcmitype/StillImage" />
        <dc:title></dc:title>
      </cc:Work>
    </rdf:RDF>
  </metadata>
  <g
     inkscape:label="Layer 1"
     inkscape:groupmode="layer"
     id="layer1"
     transform="translate(0,287.2)">
    <g
       id="g908">
      <path
         id="rect840"
         d="m 92.134974,-307.23401 h 8.424016 c 7.48806,0 13.51635,6.02829 13.51635,13.51635 V 93.435553 c 0,7.488057 -6.02829,13.516347 -13.51635,13.516347 h -8.424016 c -7.488059,0 -13.516352,-6.02829 -13.516352,-13.516347 V -293.71766 c 0,-7.48806 6.028293,-13.51635 13.516352,-13.51635 z"
         style="fill:none;fill-opacity:1;fill-rule:evenodd;stroke:#000000;stroke-width:21.6590271;stroke-linecap:round;stroke-linejoin:round;stroke-miterlimit:4;stroke-dasharray:none;stroke-opacity:1" />
      <path
         id="rect842"
         d="m -112.51072,-450.47919 h 28.316802 c 0.6338,0 1.144043,0.51025 1.144043,1.14405 v 288.02307 c 0,0.6338 -0.510243,1.14404 -1.144043,1.14404 h -28.316802 c -0.6338,0 -1.14404,-0.51024 -1.14404,-1.14404 v -288.02307 c 0,-0.6338 0.51024,-1.14405 1.14404,-1.14405 z"
         style="fill:#000000;fill-opacity:1;fill-rule:evenodd;stroke:#000000;stroke-width:13.87885094;stroke-linecap:round;stroke-linejoin:round;stroke-miterlimit:4;stroke-dasharray:none;stroke-opacity:1"
         transform="rotate(90)" />
      <path
         id="rect844"
         d="m 45.606506,-255.93819 h 12.001503 c 6.497095,0 11.727608,5.23052 11.727608,11.72761 V 46.903725 c 0,6.497094 -5.230513,11.727607 -11.727608,11.727607 H 45.606506 c -6.497094,0 -11.727607,-5.230513 -11.727607,-11.727607 V -244.21058 c 0,-6.49709 5.230513,-11.72761 11.727607,-11.72761 z"
         style="fill:none;fill-opacity:1;fill-rule:evenodd;stroke:#000000;stroke-width:21.6590271;stroke-linecap:round;stroke-linejoin:round;stroke-miterlimit:4;stroke-dasharray:none;stroke-opacity:1" />
      <path
         id="rect846"
         d="m -112.21175,-33.930912 h 27.717615 c 3.301523,0 5.959429,2.657905 5.959429,5.959429 v 15.919696 c 0,3.3015239 -2.657906,5.9594294 -5.959429,5.9594294 h -27.717615 c -3.30153,0 -5.95943,-2.6579055 -5.95943,-5.9594294 v -15.919696 c 0,-3.301524 2.6579,-5.959429 5.95943,-5.959429 z"
         style="fill:#000000;fill-opacity:1;fill-rule:evenodd;stroke:#000000;stroke-width:4.8909936;stroke-linecap:round;stroke-linejoin:round;stroke-miterlimit:4;stroke-dasharray:none;stroke-opacity:1"
         transform="rotate(90)" />
      <path
         id="rect848"
         d="m 509.57493,-106.95169 h 8.42398 c 7.48807,0 13.51637,6.0283 13.51637,13.516362 V 293.71823 c 0,7.48806 -6.0283,13.51636 -13.51637,13.51636 h -8.42398 c -7.48807,0 -13.51637,-6.0283 -13.51637,-13.51636 V -93.435328 c 0,-7.488062 6.0283,-13.516362 13.51637,-13.516362 z"
         style="fill:none;fill-opacity:1;fill-rule:evenodd;stroke:#000000;stroke-width:21.65903664;stroke-linecap:round;stroke-linejoin:round;stroke-miterlimit:4;stroke-dasharray:none;stroke-opacity:1"
         transform="scale(1,-1)" />
      <path
         id="rect850"
         d="m 552.52547,-58.631111 h 12.00148 c 6.4971,0 11.72762,5.230518 11.72762,11.727618 V 244.21106 c 0,6.4971 -5.23052,11.72762 -11.72762,11.72762 h -12.00148 c -6.4971,0 -11.72762,-5.23052 -11.72762,-11.72762 V -46.903493 c 0,-6.4971 5.23052,-11.727618 11.72762,-11.727618 z"
         style="fill:none;fill-opacity:1;fill-rule:evenodd;stroke:#000000;stroke-width:21.65903664;stroke-linecap:round;stroke-linejoin:round;stroke-miterlimit:4;stroke-dasharray:none;stroke-opacity:1"
         transform="scale(1,-1)" />
      <path
         id="rect852"
         d="m 84.494143,-604.04065 h 27.717617 c 3.30152,0 5.95943,2.65791 5.95943,5.95943 v 15.9197 c 0,3.30152 -2.65791,5.95942 -5.95943,5.95942 H 84.494143 c -3.301524,0 -5.959429,-2.6579 -5.959429,-5.95942 v -15.9197 c 0,-3.30152 2.657905,-5.95943 5.959429,-5.95943 z"
         style="fill:#000000;fill-opacity:1;fill-rule:evenodd;stroke:#000000;stroke-width:4.8909936;stroke-linecap:round;stroke-linejoin:round;stroke-miterlimit:4;stroke-dasharray:none;stroke-opacity:1"
         transform="matrix(0,-1,-1,0,0,0)" />
      <path
         id="rect868"
         d="m 465.23191,-130.87444 h 8.71877 c 7.15086,0 12.90769,5.75683 12.90769,12.90769 v 436.43404 c 0,7.15086 -5.75683,12.90769 -12.90769,12.90769 h -8.71877 c -7.15086,0 -12.90769,-5.75683 -12.90769,-12.90769 v -436.43404 c 0,-7.15086 5.75683,-12.90769 12.90769,-12.90769 z"
         style="fill:none;fill-opacity:1;fill-rule:evenodd;stroke:#000000;stroke-width:22.58159637;stroke-linecap:round;stroke-linejoin:round;stroke-miterlimit:4;stroke-dasharray:none;stroke-opacity:1"
         transform="scale(1,-1)" />
      <path
         id="rect870"
         d="m 136.04944,-130.87444 h 8.71877 c 7.15086,0 12.90769,5.75683 12.90769,12.90769 v 436.43404 c 0,7.15086 -5.75683,12.90769 -12.90769,12.90769 h -8.71877 c -7.15086,0 -12.90769,-5.75683 -12.90769,-12.90769 v -436.43404 c 0,-7.15086 5.75683,-12.90769 12.90769,-12.90769 z"
         style="fill:none;fill-opacity:1;fill-rule:evenodd;stroke:#000000;stroke-width:22.58159637;stroke-linecap:round;stroke-linejoin:round;stroke-miterlimit:4;stroke-dasharray:none;stroke-opacity:1"
         transform="scale(1,-1)" />
    </g>
  </g>
</svg>
